<svg width="117" height="128" viewBox="0 0 117 128" fill="none" xmlns="http://www.w3.org/2000/svg">
<path fill-rule="evenodd" clip-rule="evenodd" d="M64.0657 0.714844C68.1181 0.714844 68.7171 6.49388 65.3202 8.70682C55.0264 15.3823 47.5894 25.6539 44.4606 37.517C41.3317 49.3801 42.7355 61.9835 48.3979 72.8674C54.0604 83.7513 63.5753 92.1348 75.0856 96.3817C86.5959 100.629 99.2757 100.434 110.65 95.8363C114.026 94.4832 117.86 97.9577 115.753 100.918C109.446 109.781 100.965 116.874 91.1248 121.514C81.2851 126.153 70.4174 128.184 59.5661 127.411C48.7148 126.638 38.2448 123.087 29.162 117.1C20.0793 111.112 12.6893 102.889 7.70217 93.2207C2.71502 83.5524 0.298386 72.7639 0.684502 61.892C1.07062 51.0201 4.24651 40.4302 9.90696 31.1401C15.5674 21.8499 23.5222 14.1718 33.0068 8.84358C42.4914 3.51533 53.187 0.716087 64.0657 0.714844Z" fill="black"/>
</svg>
