<svg width="153" height="152" viewBox="0 0 153 152" fill="none" xmlns="http://www.w3.org/2000/svg">
<g clip-path="url(#clip0_4706_360)">
<path d="M118.795 76.1429C118.795 87.3561 114.34 98.1101 106.411 106.039C98.4821 113.968 87.7281 118.423 76.5149 118.423C65.3017 118.423 54.5477 113.968 46.6188 106.039C38.6898 98.1101 34.2354 87.3561 34.2354 76.1429C34.2354 64.9296 38.6898 54.1757 46.6188 46.2467C54.5477 38.3177 65.3017 33.8633 76.5149 33.8633C87.7281 33.8633 98.4821 38.3177 106.411 46.2467C114.34 54.1757 118.795 64.9296 118.795 76.1429Z" fill="white"/>
<path fill-rule="evenodd" clip-rule="evenodd" d="M76.5146 0.390625C77.9163 0.390625 79.2605 0.947431 80.2517 1.93855C81.2428 2.92967 81.7996 4.27392 81.7996 5.67558V12.7222C81.7996 14.1238 81.2428 15.4681 80.2517 16.4592C79.2605 17.4503 77.9163 18.0071 76.5146 18.0071C75.113 18.0071 73.7687 17.4503 72.7776 16.4592C71.7865 15.4681 71.2297 14.1238 71.2297 12.7222V5.67558C71.2297 4.27392 71.7865 2.92967 72.7776 1.93855C73.7687 0.947431 75.113 0.390625 76.5146 0.390625ZM22.9534 22.5804C23.9444 21.5907 25.2876 21.0348 26.6881 21.0348C28.0886 21.0348 29.4319 21.5907 30.4228 22.5804L33.1921 25.3426C34.1553 26.3389 34.6886 27.6737 34.6773 29.0594C34.6659 30.4451 34.1107 31.7709 33.1313 32.7512C32.1519 33.7316 30.8266 34.288 29.4409 34.3007C28.0552 34.3134 26.7199 33.7813 25.7227 32.8191L22.9534 30.0498C21.9637 29.0588 21.4078 27.7156 21.4078 26.3151C21.4078 24.9146 21.9637 23.5713 22.9534 22.5804ZM130.076 22.5804C131.066 23.5713 131.621 24.9146 131.621 26.3151C131.621 27.7156 131.066 29.0588 130.076 30.0498L127.307 32.8191C126.305 33.7526 124.98 34.2608 123.61 34.2367C122.241 34.2125 120.935 33.6579 119.967 32.6896C118.998 31.7213 118.444 30.415 118.42 29.0458C118.395 27.6766 118.904 26.3515 119.837 25.3497L122.606 22.5804C123.597 21.5907 124.941 21.0348 126.341 21.0348C127.742 21.0348 129.085 21.5907 130.076 22.5804ZM0.763672 76.1416C0.763672 74.7399 1.32048 73.3957 2.3116 72.4046C3.30272 71.4135 4.64697 70.8566 6.04862 70.8566H13.0952C14.4969 70.8566 15.8411 71.4135 16.8323 72.4046C17.8234 73.3957 18.3802 74.7399 18.3802 76.1416C18.3802 77.5433 17.8234 78.8875 16.8323 79.8786C15.8411 80.8697 14.4969 81.4266 13.0952 81.4266H6.04862C4.64697 81.4266 3.30272 80.8697 2.3116 79.8786C1.32048 78.8875 0.763672 77.5433 0.763672 76.1416ZM134.649 76.1416C134.649 74.7399 135.206 73.3957 136.197 72.4046C137.188 71.4135 138.532 70.8566 139.934 70.8566H146.981C148.382 70.8566 149.727 71.4135 150.718 72.4046C151.709 73.3957 152.266 74.7399 152.266 76.1416C152.266 77.5433 151.709 78.8875 150.718 79.8786C149.727 80.8697 148.382 81.4266 146.981 81.4266H139.934C138.532 81.4266 137.188 80.8697 136.197 79.8786C135.206 78.8875 134.649 77.5433 134.649 76.1416ZM119.837 119.464C120.828 118.474 122.171 117.919 123.572 117.919C124.972 117.919 126.316 118.474 127.307 119.464L130.076 122.233C130.595 122.717 131.012 123.301 131.3 123.949C131.589 124.597 131.745 125.297 131.757 126.007C131.77 126.716 131.639 127.421 131.373 128.079C131.107 128.737 130.712 129.335 130.21 129.837C129.708 130.339 129.11 130.734 128.452 131C127.794 131.266 127.089 131.397 126.38 131.384C125.67 131.372 124.97 131.216 124.322 130.927C123.674 130.639 123.09 130.222 122.606 129.703L119.837 126.934C118.847 125.943 118.292 124.599 118.292 123.199C118.292 121.798 118.847 120.455 119.837 119.464ZM33.1921 119.464C34.1818 120.455 34.7377 121.798 34.7377 123.199C34.7377 124.599 34.1818 125.943 33.1921 126.934L30.4228 129.703C29.939 130.222 29.3555 130.639 28.7072 130.927C28.059 131.216 27.3591 131.372 26.6495 131.384C25.9399 131.397 25.235 131.266 24.577 131C23.9189 130.734 23.3211 130.339 22.8193 129.837C22.3174 129.335 21.9218 128.737 21.656 128.079C21.3902 127.421 21.2596 126.716 21.2722 126.007C21.2847 125.297 21.44 124.597 21.7289 123.949C22.0177 123.301 22.4342 122.717 22.9534 122.233L25.7157 119.464C26.2065 118.973 26.7892 118.583 27.4307 118.318C28.0721 118.052 28.7596 117.915 29.4539 117.915C30.1482 117.915 30.8357 118.052 31.4772 118.318C32.1186 118.583 32.7013 118.973 33.1921 119.464ZM76.5146 134.276C77.9163 134.276 79.2605 134.833 80.2517 135.824C81.2428 136.815 81.7996 138.159 81.7996 139.561V146.608C81.7996 148.009 81.2428 149.354 80.2517 150.345C79.2605 151.336 77.9163 151.893 76.5146 151.893C75.113 151.893 73.7687 151.336 72.7776 150.345C71.7865 149.354 71.2297 148.009 71.2297 146.608V139.561C71.2297 138.159 71.7865 136.815 72.7776 135.824C73.7687 134.833 75.113 134.276 76.5146 134.276Z" fill="white"/>
</g>
<defs>
<clipPath id="clip0_4706_360">
<rect width="153" height="152" fill="white"/>
</clipPath>
</defs>
</svg>
